<mxfile host="app.diagrams.net" agent="Mozilla/5.0 (Macintosh; Intel Mac OS X 10_15_7) AppleWebKit/537.36 (KHTML, like Gecko) Chrome/130.0.0.0 Safari/537.36" version="24.8.6">
  <diagram id="C5RBs43oDa-KdzZeNtuy" name="Page-1">
    <mxGraphModel dx="4433" dy="4032" grid="1" gridSize="10" guides="1" tooltips="1" connect="1" arrows="1" fold="1" page="1" pageScale="1" pageWidth="827" pageHeight="1169" math="0" shadow="0">
      <root>
        <mxCell id="WIyWlLk6GJQsqaUBKTNV-0" />
        <mxCell id="WIyWlLk6GJQsqaUBKTNV-1" parent="WIyWlLk6GJQsqaUBKTNV-0" />
        <mxCell id="VPrGuGbrklQKgXLqeO5R-3" style="edgeStyle=orthogonalEdgeStyle;rounded=0;orthogonalLoop=1;jettySize=auto;html=1;entryX=0.5;entryY=0;entryDx=0;entryDy=0;" edge="1" parent="WIyWlLk6GJQsqaUBKTNV-1" source="VPrGuGbrklQKgXLqeO5R-0" target="VPrGuGbrklQKgXLqeO5R-2">
          <mxGeometry relative="1" as="geometry" />
        </mxCell>
        <mxCell id="VPrGuGbrklQKgXLqeO5R-0" value="Python" style="rounded=1;whiteSpace=wrap;html=1;fontSize=29;glass=0;strokeWidth=1;shadow=0;fillColor=#dae8fc;strokeColor=#6c8ebf;fontStyle=1" vertex="1" parent="WIyWlLk6GJQsqaUBKTNV-1">
          <mxGeometry x="350" y="-200" width="140" height="120" as="geometry" />
        </mxCell>
        <mxCell id="VPrGuGbrklQKgXLqeO5R-5" style="edgeStyle=orthogonalEdgeStyle;rounded=0;orthogonalLoop=1;jettySize=auto;html=1;entryX=0.5;entryY=0;entryDx=0;entryDy=0;" edge="1" parent="WIyWlLk6GJQsqaUBKTNV-1" source="VPrGuGbrklQKgXLqeO5R-2" target="VPrGuGbrklQKgXLqeO5R-4">
          <mxGeometry relative="1" as="geometry" />
        </mxCell>
        <mxCell id="VPrGuGbrklQKgXLqeO5R-7" style="edgeStyle=orthogonalEdgeStyle;rounded=0;orthogonalLoop=1;jettySize=auto;html=1;" edge="1" parent="WIyWlLk6GJQsqaUBKTNV-1" source="VPrGuGbrklQKgXLqeO5R-2" target="VPrGuGbrklQKgXLqeO5R-6">
          <mxGeometry relative="1" as="geometry" />
        </mxCell>
        <mxCell id="VPrGuGbrklQKgXLqeO5R-80" style="edgeStyle=orthogonalEdgeStyle;rounded=0;orthogonalLoop=1;jettySize=auto;html=1;" edge="1" parent="WIyWlLk6GJQsqaUBKTNV-1" source="VPrGuGbrklQKgXLqeO5R-2" target="VPrGuGbrklQKgXLqeO5R-77">
          <mxGeometry relative="1" as="geometry" />
        </mxCell>
        <mxCell id="VPrGuGbrklQKgXLqeO5R-2" value="Фреймворки" style="rounded=1;whiteSpace=wrap;html=1;fontSize=16;glass=0;strokeWidth=1;shadow=0;fontStyle=1" vertex="1" parent="WIyWlLk6GJQsqaUBKTNV-1">
          <mxGeometry x="340" y="25" width="160" height="70" as="geometry" />
        </mxCell>
        <mxCell id="VPrGuGbrklQKgXLqeO5R-8" style="edgeStyle=orthogonalEdgeStyle;rounded=0;orthogonalLoop=1;jettySize=auto;html=1;" edge="1" parent="WIyWlLk6GJQsqaUBKTNV-1" source="VPrGuGbrklQKgXLqeO5R-4">
          <mxGeometry relative="1" as="geometry">
            <mxPoint x="240" y="380" as="targetPoint" />
          </mxGeometry>
        </mxCell>
        <mxCell id="VPrGuGbrklQKgXLqeO5R-17" style="edgeStyle=orthogonalEdgeStyle;rounded=0;orthogonalLoop=1;jettySize=auto;html=1;" edge="1" parent="WIyWlLk6GJQsqaUBKTNV-1" source="VPrGuGbrklQKgXLqeO5R-4">
          <mxGeometry relative="1" as="geometry">
            <mxPoint x="600" y="380" as="targetPoint" />
          </mxGeometry>
        </mxCell>
        <mxCell id="VPrGuGbrklQKgXLqeO5R-21" style="edgeStyle=orthogonalEdgeStyle;rounded=0;orthogonalLoop=1;jettySize=auto;html=1;" edge="1" parent="WIyWlLk6GJQsqaUBKTNV-1" source="VPrGuGbrklQKgXLqeO5R-4">
          <mxGeometry relative="1" as="geometry">
            <mxPoint x="420" y="480" as="targetPoint" />
          </mxGeometry>
        </mxCell>
        <mxCell id="VPrGuGbrklQKgXLqeO5R-4" value="Базы данных" style="rounded=1;whiteSpace=wrap;html=1;fontSize=20;glass=0;strokeWidth=1;shadow=0;fontStyle=1" vertex="1" parent="WIyWlLk6GJQsqaUBKTNV-1">
          <mxGeometry x="340" y="330" width="160" height="100" as="geometry" />
        </mxCell>
        <mxCell id="VPrGuGbrklQKgXLqeO5R-14" style="edgeStyle=orthogonalEdgeStyle;rounded=0;orthogonalLoop=1;jettySize=auto;html=1;" edge="1" parent="WIyWlLk6GJQsqaUBKTNV-1" source="VPrGuGbrklQKgXLqeO5R-6">
          <mxGeometry relative="1" as="geometry">
            <mxPoint x="2.2737367544323206e-13" y="60" as="targetPoint" />
          </mxGeometry>
        </mxCell>
        <mxCell id="VPrGuGbrklQKgXLqeO5R-6" value="AIOGRAM" style="rounded=1;whiteSpace=wrap;html=1;fontSize=12;glass=0;strokeWidth=1;shadow=0;fillColor=#dae8fc;strokeColor=#6c8ebf;" vertex="1" parent="WIyWlLk6GJQsqaUBKTNV-1">
          <mxGeometry x="80" y="40" width="160" height="40" as="geometry" />
        </mxCell>
        <mxCell id="VPrGuGbrklQKgXLqeO5R-9" value="NoSQL" style="rounded=1;whiteSpace=wrap;html=1;fontSize=12;glass=0;strokeWidth=1;shadow=0;fillColor=#f8cecc;strokeColor=#b85450;" vertex="1" parent="WIyWlLk6GJQsqaUBKTNV-1">
          <mxGeometry x="120" y="360" width="120" height="40" as="geometry" />
        </mxCell>
        <mxCell id="VPrGuGbrklQKgXLqeO5R-10" value="REDIS" style="rounded=1;whiteSpace=wrap;html=1;fontSize=12;glass=0;strokeWidth=1;shadow=0;fillColor=#f8cecc;strokeColor=#b85450;" vertex="1" parent="WIyWlLk6GJQsqaUBKTNV-1">
          <mxGeometry x="-120" y="360" width="120" height="40" as="geometry" />
        </mxCell>
        <mxCell id="VPrGuGbrklQKgXLqeO5R-13" value="" style="endArrow=none;dashed=1;html=1;dashPattern=1 3;strokeWidth=2;rounded=0;exitX=0;exitY=0.5;exitDx=0;exitDy=0;entryX=1;entryY=0.5;entryDx=0;entryDy=0;" edge="1" parent="WIyWlLk6GJQsqaUBKTNV-1" source="VPrGuGbrklQKgXLqeO5R-9" target="VPrGuGbrklQKgXLqeO5R-10">
          <mxGeometry width="50" height="50" relative="1" as="geometry">
            <mxPoint x="200" y="270" as="sourcePoint" />
            <mxPoint x="250" y="220" as="targetPoint" />
          </mxGeometry>
        </mxCell>
        <mxCell id="VPrGuGbrklQKgXLqeO5R-15" value="FSM" style="rounded=1;whiteSpace=wrap;html=1;fontSize=12;glass=0;strokeWidth=1;shadow=0;fillColor=#f8cecc;strokeColor=#b85450;" vertex="1" parent="WIyWlLk6GJQsqaUBKTNV-1">
          <mxGeometry x="-120" y="40" width="120" height="40" as="geometry" />
        </mxCell>
        <mxCell id="VPrGuGbrklQKgXLqeO5R-16" value="" style="endArrow=none;dashed=1;html=1;dashPattern=1 3;strokeWidth=2;rounded=0;exitX=0.5;exitY=0;exitDx=0;exitDy=0;" edge="1" parent="WIyWlLk6GJQsqaUBKTNV-1" source="VPrGuGbrklQKgXLqeO5R-10" target="VPrGuGbrklQKgXLqeO5R-15">
          <mxGeometry width="50" height="50" relative="1" as="geometry">
            <mxPoint x="180" y="260" as="sourcePoint" />
            <mxPoint x="230" y="210" as="targetPoint" />
          </mxGeometry>
        </mxCell>
        <mxCell id="VPrGuGbrklQKgXLqeO5R-46" style="edgeStyle=orthogonalEdgeStyle;rounded=0;orthogonalLoop=1;jettySize=auto;html=1;" edge="1" parent="WIyWlLk6GJQsqaUBKTNV-1" source="VPrGuGbrklQKgXLqeO5R-18">
          <mxGeometry relative="1" as="geometry">
            <mxPoint x="680" y="320" as="targetPoint" />
          </mxGeometry>
        </mxCell>
        <mxCell id="VPrGuGbrklQKgXLqeO5R-50" style="edgeStyle=orthogonalEdgeStyle;rounded=0;orthogonalLoop=1;jettySize=auto;html=1;" edge="1" parent="WIyWlLk6GJQsqaUBKTNV-1" source="VPrGuGbrklQKgXLqeO5R-18">
          <mxGeometry relative="1" as="geometry">
            <mxPoint x="840" y="380" as="targetPoint" />
          </mxGeometry>
        </mxCell>
        <mxCell id="VPrGuGbrklQKgXLqeO5R-18" value="SQL" style="rounded=1;whiteSpace=wrap;html=1;fontSize=12;glass=0;strokeWidth=1;shadow=0;fillColor=#dae8fc;strokeColor=#6c8ebf;" vertex="1" parent="WIyWlLk6GJQsqaUBKTNV-1">
          <mxGeometry x="600" y="360" width="160" height="40" as="geometry" />
        </mxCell>
        <mxCell id="VPrGuGbrklQKgXLqeO5R-19" value="FastAPI" style="rounded=1;whiteSpace=wrap;html=1;fontSize=12;glass=0;strokeWidth=1;shadow=0;fillColor=#d5e8d4;strokeColor=#82b366;" vertex="1" parent="WIyWlLk6GJQsqaUBKTNV-1">
          <mxGeometry x="750" y="-240" width="160" height="40" as="geometry" />
        </mxCell>
        <mxCell id="VPrGuGbrklQKgXLqeO5R-23" style="edgeStyle=orthogonalEdgeStyle;rounded=0;orthogonalLoop=1;jettySize=auto;html=1;" edge="1" parent="WIyWlLk6GJQsqaUBKTNV-1" source="VPrGuGbrklQKgXLqeO5R-22" target="VPrGuGbrklQKgXLqeO5R-9">
          <mxGeometry relative="1" as="geometry" />
        </mxCell>
        <mxCell id="VPrGuGbrklQKgXLqeO5R-25" style="edgeStyle=orthogonalEdgeStyle;rounded=0;orthogonalLoop=1;jettySize=auto;html=1;entryX=0.5;entryY=0;entryDx=0;entryDy=0;" edge="1" parent="WIyWlLk6GJQsqaUBKTNV-1" source="VPrGuGbrklQKgXLqeO5R-22" target="VPrGuGbrklQKgXLqeO5R-24">
          <mxGeometry relative="1" as="geometry" />
        </mxCell>
        <mxCell id="VPrGuGbrklQKgXLqeO5R-22" value="Кэширование" style="rounded=1;whiteSpace=wrap;html=1;fontSize=12;glass=0;strokeWidth=1;shadow=0;" vertex="1" parent="WIyWlLk6GJQsqaUBKTNV-1">
          <mxGeometry x="340" y="480" width="160" height="40" as="geometry" />
        </mxCell>
        <mxCell id="VPrGuGbrklQKgXLqeO5R-31" style="edgeStyle=orthogonalEdgeStyle;rounded=0;orthogonalLoop=1;jettySize=auto;html=1;entryX=0;entryY=0.5;entryDx=0;entryDy=0;" edge="1" parent="WIyWlLk6GJQsqaUBKTNV-1" source="VPrGuGbrklQKgXLqeO5R-24">
          <mxGeometry relative="1" as="geometry">
            <mxPoint x="600" y="620" as="targetPoint" />
          </mxGeometry>
        </mxCell>
        <mxCell id="VPrGuGbrklQKgXLqeO5R-61" style="edgeStyle=orthogonalEdgeStyle;rounded=0;orthogonalLoop=1;jettySize=auto;html=1;entryX=1;entryY=0.5;entryDx=0;entryDy=0;" edge="1" parent="WIyWlLk6GJQsqaUBKTNV-1" source="VPrGuGbrklQKgXLqeO5R-24" target="VPrGuGbrklQKgXLqeO5R-62">
          <mxGeometry relative="1" as="geometry">
            <mxPoint x="240" y="620" as="targetPoint" />
          </mxGeometry>
        </mxCell>
        <mxCell id="VPrGuGbrklQKgXLqeO5R-72" style="edgeStyle=orthogonalEdgeStyle;rounded=0;orthogonalLoop=1;jettySize=auto;html=1;entryX=0.5;entryY=0;entryDx=0;entryDy=0;" edge="1" parent="WIyWlLk6GJQsqaUBKTNV-1" source="VPrGuGbrklQKgXLqeO5R-24">
          <mxGeometry relative="1" as="geometry">
            <mxPoint x="420" y="910" as="targetPoint" />
          </mxGeometry>
        </mxCell>
        <mxCell id="VPrGuGbrklQKgXLqeO5R-24" value="Инструменты" style="rounded=1;whiteSpace=wrap;html=1;fontSize=12;glass=0;strokeWidth=1;shadow=0;" vertex="1" parent="WIyWlLk6GJQsqaUBKTNV-1">
          <mxGeometry x="340" y="590" width="160" height="60" as="geometry" />
        </mxCell>
        <mxCell id="VPrGuGbrklQKgXLqeO5R-34" style="edgeStyle=orthogonalEdgeStyle;rounded=0;orthogonalLoop=1;jettySize=auto;html=1;entryX=0;entryY=0.5;entryDx=0;entryDy=0;exitX=1;exitY=0.5;exitDx=0;exitDy=0;" edge="1" parent="WIyWlLk6GJQsqaUBKTNV-1" source="VPrGuGbrklQKgXLqeO5R-33" target="VPrGuGbrklQKgXLqeO5R-28">
          <mxGeometry relative="1" as="geometry">
            <mxPoint x="1000" y="630" as="sourcePoint" />
          </mxGeometry>
        </mxCell>
        <mxCell id="VPrGuGbrklQKgXLqeO5R-42" style="edgeStyle=orthogonalEdgeStyle;rounded=0;orthogonalLoop=1;jettySize=auto;html=1;" edge="1" parent="WIyWlLk6GJQsqaUBKTNV-1" source="VPrGuGbrklQKgXLqeO5R-28">
          <mxGeometry relative="1" as="geometry">
            <mxPoint x="1200" y="690" as="targetPoint" />
          </mxGeometry>
        </mxCell>
        <mxCell id="VPrGuGbrklQKgXLqeO5R-28" value="Docker" style="rounded=1;whiteSpace=wrap;html=1;fontSize=12;glass=0;strokeWidth=1;shadow=0;fillColor=#dae8fc;strokeColor=#6c8ebf;" vertex="1" parent="WIyWlLk6GJQsqaUBKTNV-1">
          <mxGeometry x="1120" y="595" width="160" height="50" as="geometry" />
        </mxCell>
        <mxCell id="VPrGuGbrklQKgXLqeO5R-35" style="edgeStyle=orthogonalEdgeStyle;rounded=0;orthogonalLoop=1;jettySize=auto;html=1;" edge="1" parent="WIyWlLk6GJQsqaUBKTNV-1" source="VPrGuGbrklQKgXLqeO5R-33">
          <mxGeometry relative="1" as="geometry">
            <mxPoint x="920" y="690" as="targetPoint" />
          </mxGeometry>
        </mxCell>
        <mxCell id="VPrGuGbrklQKgXLqeO5R-33" value="Git" style="rounded=1;whiteSpace=wrap;html=1;fontSize=22;glass=0;strokeWidth=1;shadow=0;fillColor=#dae8fc;strokeColor=#6c8ebf;fontStyle=1" vertex="1" parent="WIyWlLk6GJQsqaUBKTNV-1">
          <mxGeometry x="840" y="595" width="160" height="50" as="geometry" />
        </mxCell>
        <mxCell id="VPrGuGbrklQKgXLqeO5R-39" style="edgeStyle=orthogonalEdgeStyle;rounded=0;orthogonalLoop=1;jettySize=auto;html=1;" edge="1" parent="WIyWlLk6GJQsqaUBKTNV-1" source="VPrGuGbrklQKgXLqeO5R-36" target="VPrGuGbrklQKgXLqeO5R-38">
          <mxGeometry relative="1" as="geometry" />
        </mxCell>
        <mxCell id="VPrGuGbrklQKgXLqeO5R-36" value="Работа с версиями" style="rounded=1;whiteSpace=wrap;html=1;fontSize=12;glass=0;strokeWidth=1;shadow=0;fillColor=#dae8fc;strokeColor=#6c8ebf;" vertex="1" parent="WIyWlLk6GJQsqaUBKTNV-1">
          <mxGeometry x="840" y="680" width="160" height="40" as="geometry" />
        </mxCell>
        <mxCell id="VPrGuGbrklQKgXLqeO5R-41" style="edgeStyle=orthogonalEdgeStyle;rounded=0;orthogonalLoop=1;jettySize=auto;html=1;entryX=0.5;entryY=0;entryDx=0;entryDy=0;" edge="1" parent="WIyWlLk6GJQsqaUBKTNV-1" source="VPrGuGbrklQKgXLqeO5R-38" target="VPrGuGbrklQKgXLqeO5R-40">
          <mxGeometry relative="1" as="geometry" />
        </mxCell>
        <mxCell id="VPrGuGbrklQKgXLqeO5R-38" value="Работа с ветками" style="rounded=1;whiteSpace=wrap;html=1;fontSize=12;glass=0;strokeWidth=1;shadow=0;fillColor=#dae8fc;strokeColor=#6c8ebf;" vertex="1" parent="WIyWlLk6GJQsqaUBKTNV-1">
          <mxGeometry x="840" y="760" width="160" height="40" as="geometry" />
        </mxCell>
        <mxCell id="VPrGuGbrklQKgXLqeO5R-40" value="project instruments" style="rounded=1;whiteSpace=wrap;html=1;fontSize=12;glass=0;strokeWidth=1;shadow=0;fillColor=#dae8fc;strokeColor=#6c8ebf;" vertex="1" parent="WIyWlLk6GJQsqaUBKTNV-1">
          <mxGeometry x="840" y="840" width="160" height="40" as="geometry" />
        </mxCell>
        <mxCell id="VPrGuGbrklQKgXLqeO5R-45" style="edgeStyle=orthogonalEdgeStyle;rounded=0;orthogonalLoop=1;jettySize=auto;html=1;entryX=0.5;entryY=0;entryDx=0;entryDy=0;" edge="1" parent="WIyWlLk6GJQsqaUBKTNV-1" source="VPrGuGbrklQKgXLqeO5R-43" target="VPrGuGbrklQKgXLqeO5R-44">
          <mxGeometry relative="1" as="geometry" />
        </mxCell>
        <mxCell id="VPrGuGbrklQKgXLqeO5R-43" value="Dockerfile" style="rounded=1;whiteSpace=wrap;html=1;fontSize=12;glass=0;strokeWidth=1;shadow=0;fillColor=#dae8fc;strokeColor=#6c8ebf;" vertex="1" parent="WIyWlLk6GJQsqaUBKTNV-1">
          <mxGeometry x="1120" y="680" width="160" height="40" as="geometry" />
        </mxCell>
        <mxCell id="VPrGuGbrklQKgXLqeO5R-44" value="docker-compose.yml" style="rounded=1;whiteSpace=wrap;html=1;fontSize=12;glass=0;strokeWidth=1;shadow=0;fillColor=#dae8fc;strokeColor=#6c8ebf;" vertex="1" parent="WIyWlLk6GJQsqaUBKTNV-1">
          <mxGeometry x="1120" y="760" width="160" height="40" as="geometry" />
        </mxCell>
        <mxCell id="VPrGuGbrklQKgXLqeO5R-49" style="edgeStyle=orthogonalEdgeStyle;rounded=0;orthogonalLoop=1;jettySize=auto;html=1;" edge="1" parent="WIyWlLk6GJQsqaUBKTNV-1" source="VPrGuGbrklQKgXLqeO5R-47" target="VPrGuGbrklQKgXLqeO5R-48">
          <mxGeometry relative="1" as="geometry" />
        </mxCell>
        <mxCell id="VPrGuGbrklQKgXLqeO5R-47" value="SQLite" style="rounded=1;whiteSpace=wrap;html=1;fontSize=12;glass=0;strokeWidth=1;shadow=0;fillColor=#dae8fc;strokeColor=#6c8ebf;" vertex="1" parent="WIyWlLk6GJQsqaUBKTNV-1">
          <mxGeometry x="600" y="280" width="160" height="40" as="geometry" />
        </mxCell>
        <mxCell id="VPrGuGbrklQKgXLqeO5R-48" value="PostgreSQL" style="rounded=1;whiteSpace=wrap;html=1;fontSize=12;glass=0;strokeWidth=1;shadow=0;fillColor=#dae8fc;strokeColor=#6c8ebf;" vertex="1" parent="WIyWlLk6GJQsqaUBKTNV-1">
          <mxGeometry x="600" y="200" width="160" height="40" as="geometry" />
        </mxCell>
        <mxCell id="VPrGuGbrklQKgXLqeO5R-57" style="edgeStyle=orthogonalEdgeStyle;rounded=0;orthogonalLoop=1;jettySize=auto;html=1;" edge="1" parent="WIyWlLk6GJQsqaUBKTNV-1" source="VPrGuGbrklQKgXLqeO5R-51">
          <mxGeometry relative="1" as="geometry">
            <mxPoint x="1080" y="380" as="targetPoint" />
          </mxGeometry>
        </mxCell>
        <mxCell id="VPrGuGbrklQKgXLqeO5R-51" value="ORM" style="rounded=1;whiteSpace=wrap;html=1;fontSize=24;glass=0;strokeWidth=1;shadow=0;fillColor=#dae8fc;strokeColor=#6c8ebf;fontStyle=1" vertex="1" parent="WIyWlLk6GJQsqaUBKTNV-1">
          <mxGeometry x="840" y="340" width="160" height="80" as="geometry" />
        </mxCell>
        <mxCell id="VPrGuGbrklQKgXLqeO5R-53" value="&lt;font style=&quot;font-size: 19px;&quot;&gt;&lt;b&gt;SQLAlchemy&lt;/b&gt;&lt;/font&gt;" style="rounded=1;whiteSpace=wrap;html=1;fontSize=12;glass=0;strokeWidth=1;shadow=0;fillColor=#dae8fc;strokeColor=#6c8ebf;" vertex="1" parent="WIyWlLk6GJQsqaUBKTNV-1">
          <mxGeometry x="1081" y="340" width="160" height="80" as="geometry" />
        </mxCell>
        <mxCell id="VPrGuGbrklQKgXLqeO5R-59" style="edgeStyle=orthogonalEdgeStyle;rounded=0;orthogonalLoop=1;jettySize=auto;html=1;entryX=0;entryY=0.5;entryDx=0;entryDy=0;" edge="1" parent="WIyWlLk6GJQsqaUBKTNV-1" source="VPrGuGbrklQKgXLqeO5R-58" target="VPrGuGbrklQKgXLqeO5R-33">
          <mxGeometry relative="1" as="geometry" />
        </mxCell>
        <mxCell id="VPrGuGbrklQKgXLqeO5R-58" value="DevOps" style="rounded=1;whiteSpace=wrap;html=1;fontSize=12;glass=0;strokeWidth=1;shadow=0;fillColor=#f5f5f5;strokeColor=#666666;fontColor=#333333;" vertex="1" parent="WIyWlLk6GJQsqaUBKTNV-1">
          <mxGeometry x="600" y="600" width="160" height="40" as="geometry" />
        </mxCell>
        <mxCell id="VPrGuGbrklQKgXLqeO5R-63" style="edgeStyle=orthogonalEdgeStyle;rounded=0;orthogonalLoop=1;jettySize=auto;html=1;" edge="1" parent="WIyWlLk6GJQsqaUBKTNV-1" source="VPrGuGbrklQKgXLqeO5R-62">
          <mxGeometry relative="1" as="geometry">
            <mxPoint x="-40" y="619.9999999999995" as="targetPoint" />
          </mxGeometry>
        </mxCell>
        <mxCell id="VPrGuGbrklQKgXLqeO5R-62" value="&lt;font style=&quot;font-size: 18px;&quot;&gt;QA&lt;/font&gt;" style="rounded=1;whiteSpace=wrap;html=1;fontSize=12;glass=0;strokeWidth=1;shadow=0;fillColor=#f5f5f5;strokeColor=#666666;fontColor=#333333;" vertex="1" parent="WIyWlLk6GJQsqaUBKTNV-1">
          <mxGeometry x="80" y="560" width="120" height="120" as="geometry" />
        </mxCell>
        <mxCell id="VPrGuGbrklQKgXLqeO5R-66" style="edgeStyle=orthogonalEdgeStyle;rounded=0;orthogonalLoop=1;jettySize=auto;html=1;entryX=0.5;entryY=0;entryDx=0;entryDy=0;" edge="1" parent="WIyWlLk6GJQsqaUBKTNV-1" source="VPrGuGbrklQKgXLqeO5R-65" target="VPrGuGbrklQKgXLqeO5R-67">
          <mxGeometry relative="1" as="geometry">
            <mxPoint x="-120" y="680" as="targetPoint" />
          </mxGeometry>
        </mxCell>
        <mxCell id="VPrGuGbrklQKgXLqeO5R-69" style="edgeStyle=orthogonalEdgeStyle;rounded=0;orthogonalLoop=1;jettySize=auto;html=1;" edge="1" parent="WIyWlLk6GJQsqaUBKTNV-1" source="VPrGuGbrklQKgXLqeO5R-65" target="VPrGuGbrklQKgXLqeO5R-68">
          <mxGeometry relative="1" as="geometry" />
        </mxCell>
        <mxCell id="VPrGuGbrklQKgXLqeO5R-65" value="Логирование" style="rounded=1;whiteSpace=wrap;html=1;fontSize=12;glass=0;strokeWidth=1;shadow=0;fillColor=#dae8fc;strokeColor=#6c8ebf;" vertex="1" parent="WIyWlLk6GJQsqaUBKTNV-1">
          <mxGeometry x="-200" y="590" width="160" height="60" as="geometry" />
        </mxCell>
        <mxCell id="VPrGuGbrklQKgXLqeO5R-67" value="Logging" style="rounded=1;whiteSpace=wrap;html=1;fontSize=12;glass=0;strokeWidth=1;shadow=0;fillColor=#dae8fc;strokeColor=#6c8ebf;" vertex="1" parent="WIyWlLk6GJQsqaUBKTNV-1">
          <mxGeometry x="-200" y="720" width="160" height="40" as="geometry" />
        </mxCell>
        <mxCell id="VPrGuGbrklQKgXLqeO5R-70" style="edgeStyle=orthogonalEdgeStyle;rounded=0;orthogonalLoop=1;jettySize=auto;html=1;" edge="1" parent="WIyWlLk6GJQsqaUBKTNV-1" source="VPrGuGbrklQKgXLqeO5R-68">
          <mxGeometry relative="1" as="geometry">
            <mxPoint x="-400" y="720" as="targetPoint" />
          </mxGeometry>
        </mxCell>
        <mxCell id="VPrGuGbrklQKgXLqeO5R-68" value="Тестирование" style="rounded=1;whiteSpace=wrap;html=1;fontSize=12;glass=0;strokeWidth=1;shadow=0;fillColor=#d5e8d4;strokeColor=#82b366;" vertex="1" parent="WIyWlLk6GJQsqaUBKTNV-1">
          <mxGeometry x="-480" y="590" width="160" height="60" as="geometry" />
        </mxCell>
        <mxCell id="VPrGuGbrklQKgXLqeO5R-71" value="pytest" style="rounded=1;whiteSpace=wrap;html=1;fontSize=12;glass=0;strokeWidth=1;shadow=0;fillColor=#d5e8d4;strokeColor=#82b366;" vertex="1" parent="WIyWlLk6GJQsqaUBKTNV-1">
          <mxGeometry x="-480" y="720" width="160" height="40" as="geometry" />
        </mxCell>
        <mxCell id="VPrGuGbrklQKgXLqeO5R-99" style="edgeStyle=orthogonalEdgeStyle;rounded=0;orthogonalLoop=1;jettySize=auto;html=1;" edge="1" parent="WIyWlLk6GJQsqaUBKTNV-1" source="VPrGuGbrklQKgXLqeO5R-77" target="VPrGuGbrklQKgXLqeO5R-96">
          <mxGeometry relative="1" as="geometry" />
        </mxCell>
        <mxCell id="VPrGuGbrklQKgXLqeO5R-103" style="edgeStyle=orthogonalEdgeStyle;rounded=0;orthogonalLoop=1;jettySize=auto;html=1;" edge="1" parent="WIyWlLk6GJQsqaUBKTNV-1" source="VPrGuGbrklQKgXLqeO5R-77" target="VPrGuGbrklQKgXLqeO5R-101">
          <mxGeometry relative="1" as="geometry" />
        </mxCell>
        <mxCell id="VPrGuGbrklQKgXLqeO5R-77" value="&lt;font style=&quot;font-size: 23px;&quot;&gt;&lt;b&gt;WEB&lt;/b&gt;&lt;/font&gt;" style="rounded=1;whiteSpace=wrap;html=1;fontSize=12;glass=0;strokeWidth=1;shadow=0;" vertex="1" parent="WIyWlLk6GJQsqaUBKTNV-1">
          <mxGeometry x="750" y="20" width="160" height="80" as="geometry" />
        </mxCell>
        <mxCell id="VPrGuGbrklQKgXLqeO5R-97" style="edgeStyle=orthogonalEdgeStyle;rounded=0;orthogonalLoop=1;jettySize=auto;html=1;entryX=0.5;entryY=1;entryDx=0;entryDy=0;" edge="1" parent="WIyWlLk6GJQsqaUBKTNV-1" source="VPrGuGbrklQKgXLqeO5R-96" target="VPrGuGbrklQKgXLqeO5R-19">
          <mxGeometry relative="1" as="geometry" />
        </mxCell>
        <mxCell id="VPrGuGbrklQKgXLqeO5R-96" value="REST API" style="rounded=1;whiteSpace=wrap;html=1;fontSize=16;glass=0;strokeWidth=1;shadow=0;fontStyle=1;fillColor=#f5f5f5;fontColor=#333333;strokeColor=#666666;" vertex="1" parent="WIyWlLk6GJQsqaUBKTNV-1">
          <mxGeometry x="750" y="-130" width="160" height="50" as="geometry" />
        </mxCell>
        <mxCell id="VPrGuGbrklQKgXLqeO5R-107" value="" style="edgeStyle=orthogonalEdgeStyle;rounded=0;orthogonalLoop=1;jettySize=auto;html=1;" edge="1" parent="WIyWlLk6GJQsqaUBKTNV-1" source="VPrGuGbrklQKgXLqeO5R-101" target="VPrGuGbrklQKgXLqeO5R-106">
          <mxGeometry relative="1" as="geometry" />
        </mxCell>
        <mxCell id="VPrGuGbrklQKgXLqeO5R-113" value="" style="edgeStyle=orthogonalEdgeStyle;rounded=0;orthogonalLoop=1;jettySize=auto;html=1;" edge="1" parent="WIyWlLk6GJQsqaUBKTNV-1" source="VPrGuGbrklQKgXLqeO5R-101" target="VPrGuGbrklQKgXLqeO5R-112">
          <mxGeometry relative="1" as="geometry" />
        </mxCell>
        <mxCell id="VPrGuGbrklQKgXLqeO5R-101" value="&lt;font style=&quot;font-size: 23px;&quot;&gt;&lt;b&gt;AI&lt;/b&gt;&lt;/font&gt;" style="rounded=1;whiteSpace=wrap;html=1;fontSize=12;glass=0;strokeWidth=1;shadow=0;" vertex="1" parent="WIyWlLk6GJQsqaUBKTNV-1">
          <mxGeometry x="1160.5" y="20" width="160" height="80" as="geometry" />
        </mxCell>
        <mxCell id="VPrGuGbrklQKgXLqeO5R-110" value="" style="edgeStyle=orthogonalEdgeStyle;rounded=0;orthogonalLoop=1;jettySize=auto;html=1;" edge="1" parent="WIyWlLk6GJQsqaUBKTNV-1" source="VPrGuGbrklQKgXLqeO5R-106" target="VPrGuGbrklQKgXLqeO5R-109">
          <mxGeometry relative="1" as="geometry" />
        </mxCell>
        <mxCell id="VPrGuGbrklQKgXLqeO5R-114" style="edgeStyle=orthogonalEdgeStyle;rounded=0;orthogonalLoop=1;jettySize=auto;html=1;entryX=0;entryY=0.5;entryDx=0;entryDy=0;" edge="1" parent="WIyWlLk6GJQsqaUBKTNV-1" source="VPrGuGbrklQKgXLqeO5R-106" target="VPrGuGbrklQKgXLqeO5R-115">
          <mxGeometry relative="1" as="geometry">
            <mxPoint x="1400" y="-200" as="targetPoint" />
          </mxGeometry>
        </mxCell>
        <mxCell id="VPrGuGbrklQKgXLqeO5R-106" value="&lt;font style=&quot;font-size: 23px;&quot;&gt;&lt;b&gt;LLM&lt;/b&gt;&lt;/font&gt;" style="rounded=1;whiteSpace=wrap;html=1;fontSize=12;glass=0;strokeWidth=1;shadow=0;fillColor=#f5f5f5;fontColor=#333333;strokeColor=#666666;" vertex="1" parent="WIyWlLk6GJQsqaUBKTNV-1">
          <mxGeometry x="1161" y="-240" width="160" height="80" as="geometry" />
        </mxCell>
        <mxCell id="VPrGuGbrklQKgXLqeO5R-121" style="edgeStyle=orthogonalEdgeStyle;rounded=0;orthogonalLoop=1;jettySize=auto;html=1;" edge="1" parent="WIyWlLk6GJQsqaUBKTNV-1" source="VPrGuGbrklQKgXLqeO5R-109" target="VPrGuGbrklQKgXLqeO5R-117">
          <mxGeometry relative="1" as="geometry" />
        </mxCell>
        <mxCell id="VPrGuGbrklQKgXLqeO5R-109" value="LangChain" style="whiteSpace=wrap;html=1;rounded=1;glass=0;strokeWidth=1;shadow=0;fillColor=#d5e8d4;strokeColor=#82b366;" vertex="1" parent="WIyWlLk6GJQsqaUBKTNV-1">
          <mxGeometry x="1162" y="-420" width="158" height="60" as="geometry" />
        </mxCell>
        <mxCell id="VPrGuGbrklQKgXLqeO5R-112" value="&lt;font style=&quot;font-size: 23px;&quot;&gt;&lt;b&gt;ML&lt;/b&gt;&lt;/font&gt;" style="rounded=1;whiteSpace=wrap;html=1;fontSize=12;glass=0;strokeWidth=1;shadow=0;" vertex="1" parent="WIyWlLk6GJQsqaUBKTNV-1">
          <mxGeometry x="1520" y="20" width="160" height="80" as="geometry" />
        </mxCell>
        <mxCell id="VPrGuGbrklQKgXLqeO5R-116" style="edgeStyle=orthogonalEdgeStyle;rounded=0;orthogonalLoop=1;jettySize=auto;html=1;" edge="1" parent="WIyWlLk6GJQsqaUBKTNV-1" source="VPrGuGbrklQKgXLqeO5R-115">
          <mxGeometry relative="1" as="geometry">
            <mxPoint x="1599" y="-360" as="targetPoint" />
          </mxGeometry>
        </mxCell>
        <mxCell id="VPrGuGbrklQKgXLqeO5R-118" style="edgeStyle=orthogonalEdgeStyle;rounded=0;orthogonalLoop=1;jettySize=auto;html=1;entryX=0;entryY=0.5;entryDx=0;entryDy=0;" edge="1" parent="WIyWlLk6GJQsqaUBKTNV-1" source="VPrGuGbrklQKgXLqeO5R-115" target="VPrGuGbrklQKgXLqeO5R-122">
          <mxGeometry relative="1" as="geometry">
            <mxPoint x="1830" y="-200" as="targetPoint" />
          </mxGeometry>
        </mxCell>
        <mxCell id="VPrGuGbrklQKgXLqeO5R-115" value="VENDOR&lt;div&gt;FRAMEWORKS&lt;/div&gt;" style="whiteSpace=wrap;html=1;rounded=1;glass=0;strokeWidth=1;shadow=0;fillColor=#f5f5f5;fontColor=#333333;strokeColor=#666666;" vertex="1" parent="WIyWlLk6GJQsqaUBKTNV-1">
          <mxGeometry x="1520" y="-230" width="158" height="60" as="geometry" />
        </mxCell>
        <mxCell id="VPrGuGbrklQKgXLqeO5R-117" value="GigaChain" style="whiteSpace=wrap;html=1;rounded=1;glass=0;strokeWidth=1;shadow=0;fillColor=#d5e8d4;strokeColor=#82b366;" vertex="1" parent="WIyWlLk6GJQsqaUBKTNV-1">
          <mxGeometry x="1522" y="-420" width="158" height="60" as="geometry" />
        </mxCell>
        <mxCell id="VPrGuGbrklQKgXLqeO5R-125" value="" style="edgeStyle=orthogonalEdgeStyle;rounded=0;orthogonalLoop=1;jettySize=auto;html=1;" edge="1" parent="WIyWlLk6GJQsqaUBKTNV-1" source="VPrGuGbrklQKgXLqeO5R-122" target="VPrGuGbrklQKgXLqeO5R-124">
          <mxGeometry relative="1" as="geometry" />
        </mxCell>
        <mxCell id="VPrGuGbrklQKgXLqeO5R-128" value="" style="edgeStyle=orthogonalEdgeStyle;rounded=0;orthogonalLoop=1;jettySize=auto;html=1;" edge="1" parent="WIyWlLk6GJQsqaUBKTNV-1" source="VPrGuGbrklQKgXLqeO5R-122" target="VPrGuGbrklQKgXLqeO5R-127">
          <mxGeometry relative="1" as="geometry" />
        </mxCell>
        <mxCell id="VPrGuGbrklQKgXLqeO5R-122" value="Sber" style="whiteSpace=wrap;html=1;rounded=1;glass=0;strokeWidth=1;shadow=0;fillColor=#d5e8d4;strokeColor=#82b366;" vertex="1" parent="WIyWlLk6GJQsqaUBKTNV-1">
          <mxGeometry x="1840" y="-230" width="158" height="60" as="geometry" />
        </mxCell>
        <mxCell id="VPrGuGbrklQKgXLqeO5R-124" value="OpenAI" style="whiteSpace=wrap;html=1;rounded=1;glass=0;strokeWidth=1;shadow=0;fillColor=#d5e8d4;strokeColor=#82b366;" vertex="1" parent="WIyWlLk6GJQsqaUBKTNV-1">
          <mxGeometry x="2160" y="-230" width="158" height="60" as="geometry" />
        </mxCell>
        <mxCell id="VPrGuGbrklQKgXLqeO5R-130" value="" style="edgeStyle=orthogonalEdgeStyle;rounded=0;orthogonalLoop=1;jettySize=auto;html=1;" edge="1" parent="WIyWlLk6GJQsqaUBKTNV-1" source="VPrGuGbrklQKgXLqeO5R-127" target="VPrGuGbrklQKgXLqeO5R-129">
          <mxGeometry relative="1" as="geometry" />
        </mxCell>
        <mxCell id="VPrGuGbrklQKgXLqeO5R-131" style="edgeStyle=orthogonalEdgeStyle;rounded=0;orthogonalLoop=1;jettySize=auto;html=1;" edge="1" parent="WIyWlLk6GJQsqaUBKTNV-1" source="VPrGuGbrklQKgXLqeO5R-127" target="VPrGuGbrklQKgXLqeO5R-117">
          <mxGeometry relative="1" as="geometry" />
        </mxCell>
        <mxCell id="VPrGuGbrklQKgXLqeO5R-127" value="GigaChat" style="whiteSpace=wrap;html=1;rounded=1;glass=0;strokeWidth=1;shadow=0;fillColor=#d5e8d4;strokeColor=#82b366;" vertex="1" parent="WIyWlLk6GJQsqaUBKTNV-1">
          <mxGeometry x="1840" y="-420" width="158" height="60" as="geometry" />
        </mxCell>
        <mxCell id="VPrGuGbrklQKgXLqeO5R-129" value="SaluteSpeech" style="whiteSpace=wrap;html=1;rounded=1;glass=0;strokeWidth=1;shadow=0;fillColor=#d5e8d4;strokeColor=#82b366;" vertex="1" parent="WIyWlLk6GJQsqaUBKTNV-1">
          <mxGeometry x="1840" y="-520" width="158" height="40" as="geometry" />
        </mxCell>
      </root>
    </mxGraphModel>
  </diagram>
</mxfile>
